<svg width="260" height="260" viewBox="0 0 260 260" fill="none" xmlns="http://www.w3.org/2000/svg">
<path d="M203.044 110.703C201.485 101.816 192.887 84.6778 175.668 73.8766C159.641 63.8371 139.958 61.7196 118.752 67.7828C99.0234 73.3789 84.7336 86.836 78.2539 105.803L74.9684 101.74C67.6508 79.9043 44.1492 85.6274 43.9106 85.6883C43.6337 85.7548 43.3855 85.9084 43.2024 86.1264C43.0193 86.3444 42.911 86.6155 42.8934 86.8997C42.8757 87.1838 42.9498 87.4662 43.1045 87.7052C43.2593 87.9441 43.4866 88.1272 43.7531 88.2274C44.0172 88.334 50.2227 90.9239 49.0293 99.516C47.8613 107.951 55.9559 112.602 60.709 114.009L75.0191 130.259H74.6231C75.2477 151.11 84.7031 170.376 99.9121 181.807C110.927 190.089 122.286 194.934 132.813 195.863L140.105 204.141C141.305 205.562 143.019 206.448 144.872 206.604C146.725 206.761 148.564 206.175 149.985 204.976C151.406 203.777 152.292 202.062 152.449 200.209C152.605 198.356 152.02 196.517 150.82 195.097L128.984 167.736L126.907 169.391L148.743 196.757C149.436 197.642 149.759 198.762 149.644 199.88C149.529 200.998 148.986 202.028 148.128 202.754C147.27 203.48 146.164 203.846 145.042 203.774C143.92 203.702 142.87 203.198 142.111 202.368L84.6117 137.109L93.8895 129.259L113.364 153.232L115.395 151.562L80.2344 108.25C86.1605 89.2989 100.039 75.8418 119.468 70.3118C139.933 64.4821 158.879 66.493 174.251 76.1262C190.755 86.4653 198.941 102.741 200.423 111.165C201.998 120.154 200.713 127.258 196.798 131.168C194.091 133.87 190.242 134.875 185.666 134.068L184.884 133.946C182.361 133.586 179.791 133.736 177.327 134.388C174.863 135.04 172.554 136.179 170.539 137.739C168.444 139.334 166.691 141.333 165.383 143.617C164.074 145.902 163.237 148.425 162.921 151.039C162.292 156.117 162.297 162.916 162.921 172.468C163.282 177.785 160.52 183.336 155.533 187.312L157.188 189.389C162.855 184.869 165.989 178.476 165.567 172.291C164.938 162.911 164.927 156.264 165.537 151.369C165.811 149.104 166.536 146.918 167.67 144.939C168.804 142.96 170.323 141.228 172.138 139.847C173.875 138.501 175.865 137.517 177.989 136.955C180.113 136.392 182.328 136.262 184.503 136.571C184.732 136.602 184.961 136.637 185.194 136.683C190.658 137.643 195.32 136.388 198.666 133.042C203.232 128.477 204.775 120.565 203.044 110.703ZM51.6598 99.8715C52.5332 93.5594 49.9992 89.7965 47.7496 87.7602C50.5589 87.4582 53.3968 87.5539 56.1793 88.0446C64.0402 89.4918 69.4332 94.1891 72.2313 101.989L61.1609 111.358C58.7488 110.556 50.634 107.291 51.6598 99.8715ZM101.527 179.695C87.6332 169.254 78.7617 151.943 77.4363 132.976L130.193 192.898C120.976 191.445 111.135 186.916 101.527 179.695ZM82.8547 135.114L63.3547 112.973L73.6328 104.3L92.234 127.197L82.8547 135.114Z" fill="#15D47E"/>
<path d="M170.117 109.017C172.098 109.015 174.034 108.426 175.68 107.323C177.326 106.221 178.608 104.655 179.364 102.824C180.119 100.992 180.315 98.9782 179.926 97.0357C179.537 95.0933 178.58 93.31 177.177 91.9113C175.774 90.5126 173.988 89.5615 172.044 89.1782C170.101 88.795 168.087 88.9968 166.258 89.7581C164.43 90.5195 162.868 91.8062 161.77 93.4554C160.673 95.1047 160.089 97.0424 160.093 99.0234C160.101 101.677 161.161 104.219 163.04 106.092C164.919 107.965 167.464 109.017 170.117 109.017ZM170.117 91.6398C171.574 91.6398 172.997 92.0716 174.208 92.8807C175.419 93.6898 176.363 94.8398 176.92 96.1853C177.477 97.5307 177.623 99.0112 177.339 100.44C177.055 101.868 176.354 103.18 175.324 104.21C174.294 105.239 172.982 105.941 171.554 106.225C170.125 106.509 168.645 106.363 167.299 105.806C165.954 105.249 164.804 104.305 163.995 103.094C163.186 101.883 162.754 100.459 162.754 99.0031C162.757 97.051 163.533 95.1797 164.914 93.7994C166.294 92.4191 168.165 91.6425 170.117 91.6398Z" fill="#15D47E"/>
<path d="M125.816 85.7086C125.817 87.689 126.405 89.6246 127.506 91.2707C128.607 92.9169 130.171 94.1996 132.001 94.9568C133.831 95.7139 135.844 95.9115 137.786 95.5245C139.729 95.1376 141.512 94.1834 142.912 92.7827C144.312 91.382 145.266 89.5977 145.652 87.6553C146.038 85.7129 145.839 83.6997 145.081 81.8701C144.323 80.0406 143.039 78.4769 141.393 77.3768C139.746 76.2766 137.81 75.6895 135.83 75.6895C133.174 75.6921 130.627 76.7488 128.75 78.6273C126.872 80.5058 125.817 83.0526 125.816 85.7086ZM143.188 85.7086C143.188 87.1651 142.756 88.5889 141.947 89.7999C141.137 91.0109 139.987 91.9547 138.641 92.5119C137.295 93.069 135.815 93.2145 134.386 92.93C132.958 92.6455 131.646 91.9437 130.616 90.9134C129.587 89.8831 128.886 88.5707 128.602 87.142C128.319 85.7133 128.465 84.2326 129.023 82.8873C129.581 81.5419 130.526 80.3923 131.737 79.5838C132.949 78.7753 134.373 78.3443 135.83 78.3453C136.797 78.3446 137.756 78.5346 138.65 78.9042C139.544 79.2739 140.357 79.8161 141.041 80.4999C141.726 81.1836 142.269 81.9955 142.64 82.8892C143.011 83.7829 143.202 84.741 143.203 85.7086H143.188Z" fill="#15D47E"/>
<path d="M94.7933 106.133C94.7933 108.113 95.3807 110.049 96.481 111.696C97.5814 113.343 99.1453 114.627 100.975 115.385C102.805 116.142 104.819 116.341 106.761 115.954C108.704 115.568 110.488 114.614 111.888 113.214C113.289 111.813 114.243 110.029 114.629 108.086C115.015 106.144 114.817 104.13 114.059 102.3C113.301 100.471 112.018 98.9067 110.371 97.8063C108.724 96.706 106.788 96.1187 104.807 96.1187C102.152 96.1213 99.6068 97.1773 97.7294 99.0547C95.8519 100.932 94.796 103.478 94.7933 106.133ZM112.171 106.133C112.172 107.589 111.741 109.013 110.932 110.225C110.124 111.436 108.974 112.381 107.629 112.939C106.283 113.497 104.803 113.644 103.374 113.36C101.945 113.077 100.633 112.376 99.6026 111.346C98.5723 110.317 97.8705 109.005 97.586 107.576C97.3014 106.148 97.447 104.667 98.0041 103.321C98.5613 101.975 99.5051 100.825 100.716 100.016C101.927 99.2065 103.351 98.7745 104.807 98.7745C106.759 98.7759 108.63 99.5514 110.011 100.931C111.391 102.31 112.168 104.181 112.171 106.133Z" fill="#15D47E"/>
<path d="M120.167 156.7L118.095 158.353L121.998 163.248L124.071 161.595L120.167 156.7Z" fill="#15D47E"/>
<path d="M199.768 185.981H197.112V193.273H189.825V195.924H197.112V203.216H199.768V195.924H207.061V193.273H199.768V185.981Z" fill="#15D47E"/>
<path d="M57.6875 57.9212H60.3434V50.629H67.6356V47.9782H60.3434V40.686H57.6875V47.9782H50.3953V50.629H57.6875V57.9212Z" fill="#15D47E"/>
<path d="M58.0125 194.106H55.3617V199.068H50.3953V201.723H55.3617V206.69H58.0125V201.723H62.9789V199.068H58.0125V194.106Z" fill="#15D47E"/>
<path d="M215.678 171.768V169.117H212.697V166.136H210.041V169.117H207.061V171.768H210.041V174.754H212.697V171.768H215.678Z" fill="#15D47E"/>
<path d="M201.089 66.5387H203.74V63.5579H206.72V60.9071H203.74V57.9211H201.089V60.9071H198.103V63.5579H201.089V66.5387Z" fill="#15D47E"/>
</svg>
