<svg id="Layer_3" data-name="Layer 3" xmlns="http://www.w3.org/2000/svg" viewBox="0 0 512 512"><defs><style>.cls-1{fill:#fff;}</style></defs><path class="cls-1" d="M399.84,218c-3.07-17.5-20-51.25-53.91-72.52-31.56-19.77-70.32-23.94-112.08-12C195,144.5,166.86,171,154.1,208.35l-6.47-8c-14.41-43-60.69-31.73-61.16-31.61a2.62,2.62,0,0,0-.31,5c.52.21,12.74,5.31,10.39,22.23-2.3,16.61,13.64,25.77,23,28.54l28.18,32-.78,0c1.23,41.06,19.85,79,49.8,101.51,21.69,16.31,44.06,25.85,64.79,27.68L275.9,402A13.78,13.78,0,0,0,297,384.19l-43-53.88-4.09,3.26,43,53.89a8.56,8.56,0,0,1-13.06,11.05L166.62,270l18.27-15.46,38.35,47.21,4-3.29L158,213.17c11.67-37.32,39-63.82,77.26-74.71,40.3-11.48,77.61-7.52,107.88,11.45,32.5,20.36,48.62,52.41,51.54,69,3.1,17.7.57,31.69-7.14,39.39-5.33,5.32-12.91,7.3-21.92,5.71l-1.54-.24a37.51,37.51,0,0,0-28.25,7.47,38.77,38.77,0,0,0-15,26.19c-1.24,10-1.23,23.39,0,42.2.71,10.47-4.73,21.4-14.55,29.23l3.26,4.09c11.16-8.9,17.33-21.49,16.5-33.67-1.24-18.47-1.26-31.56-.06-41.2a33.59,33.59,0,0,1,13-22.69,32.32,32.32,0,0,1,24.35-6.45c.45.06.9.13,1.36.22,10.76,1.89,19.94-.58,26.53-7.17C400.21,253,403.25,237.42,399.84,218ZM101.73,196.67c1.72-12.43-3.27-19.84-7.7-23.85a59.17,59.17,0,0,1,16.6.56c15.48,2.85,26.1,12.1,31.61,27.46l-21.8,18.45C115.69,217.71,99.71,211.28,101.73,196.67Zm98.2,157.19c-27.36-20.56-44.83-54.65-47.44-92l103.89,118C238.23,377,218.85,368.08,199.93,353.86Zm-36.77-87.79-38.4-43.6L145,205.39l36.63,45.09Z"/><path class="cls-1" d="M335,214.68A19.72,19.72,0,1,0,315.26,195,19.74,19.74,0,0,0,335,214.68Zm0-34.22a14.5,14.5,0,1,1-14.5,14.5A14.52,14.52,0,0,1,335,180.46Z"/><path class="cls-1" d="M247.76,168.78a19.72,19.72,0,1,0,19.72-19.73A19.74,19.74,0,0,0,247.76,168.78Zm34.21,0a14.5,14.5,0,1,1-14.49-14.5A14.51,14.51,0,0,1,282,168.78Z"/><path class="cls-1" d="M186.67,209a19.72,19.72,0,1,0,19.72-19.72A19.74,19.74,0,0,0,186.67,209Zm34.22,0a14.5,14.5,0,1,1-14.5-14.49A14.51,14.51,0,0,1,220.89,209Z"/><rect class="cls-1" x="235.83" y="308.84" width="5.22" height="12.33" transform="translate(-144.38 217.4) rotate(-38.57)"/><polygon class="cls-1" points="393.39 366.24 388.16 366.24 388.16 380.6 373.81 380.6 373.81 385.82 388.16 385.82 388.16 400.18 393.39 400.18 393.39 385.82 407.75 385.82 407.75 380.6 393.39 380.6 393.39 366.24"/><polygon class="cls-1" points="113.6 114.06 118.83 114.06 118.83 99.7 133.19 99.7 133.19 94.48 118.83 94.48 118.83 80.12 113.6 80.12 113.6 94.48 99.24 94.48 99.24 99.7 113.6 99.7 113.6 114.06"/><polygon class="cls-1" points="114.24 382.24 109.02 382.24 109.02 392.01 99.24 392.01 99.24 397.24 109.02 397.24 109.02 407.02 114.24 407.02 114.24 397.24 124.02 397.24 124.02 392.01 114.24 392.01 114.24 382.24"/><polygon class="cls-1" points="424.72 338.25 424.72 333.03 418.85 333.03 418.85 327.16 413.62 327.16 413.62 333.03 407.75 333.03 407.75 338.25 413.62 338.25 413.62 344.13 418.85 344.13 418.85 338.25 424.72 338.25"/><polygon class="cls-1" points="395.99 131.03 401.21 131.03 401.21 125.16 407.08 125.16 407.08 119.94 401.21 119.94 401.21 114.06 395.99 114.06 395.99 119.94 390.11 119.94 390.11 125.16 395.99 125.16 395.99 131.03"/></svg>