<svg id="Layer_3" data-name="Layer 3" xmlns="http://www.w3.org/2000/svg" viewBox="0 0 512 512"><defs><style>.cls-1{fill:#fff;}</style></defs><rect class="cls-1" x="162.34" y="370.57" width="9.72" height="5"/><rect class="cls-1" x="308.31" y="210.86" width="12.81" height="5"/><rect class="cls-1" x="283.65" y="210.86" width="12.81" height="5"/><rect class="cls-1" x="259" y="210.86" width="12.81" height="5"/><path class="cls-1" d="M224.45,361.65a57.78,57.78,0,1,0-57.78-57.78A57.85,57.85,0,0,0,224.45,361.65Zm2.5-28.9a85.77,85.77,0,0,1,22,3.4c-5.2,11.41-13.08,19.1-22,20.32Zm0-5V306.37h28.5a80.56,80.56,0,0,1-4.57,25.14A90.7,90.7,0,0,0,227,327.75Zm0-26.38V280a91.11,91.11,0,0,0,23.93-3.77,80.61,80.61,0,0,1,4.57,25.14ZM227,275V251.28c9,1.22,16.83,8.91,22,20.31A85.77,85.77,0,0,1,227,275Zm-5,0a85.77,85.77,0,0,1-22-3.41c5.2-11.4,13.08-19.09,22-20.31Zm0,5v21.37h-28.5A80.61,80.61,0,0,1,198,276.23,91.11,91.11,0,0,0,222,280Zm0,26.37v21.38A90.7,90.7,0,0,0,198,331.51a80.56,80.56,0,0,1-4.57-25.14Zm0,26.38v23.72c-8.95-1.22-16.83-8.91-22-20.32A85.77,85.77,0,0,1,222,332.75ZM205.7,353.2a53,53,0,0,1-18.35-11.83,57.49,57.49,0,0,1,7.91-3.66A51.41,51.41,0,0,0,205.7,353.2Zm47.94-15.49a57.49,57.49,0,0,1,7.91,3.66A53,53,0,0,1,243.2,353.2,51.22,51.22,0,0,0,253.64,337.71Zm1.89-4.62a84.59,84.59,0,0,0,4.92-26.72h16.72A52.58,52.58,0,0,1,265,337.58,63.07,63.07,0,0,0,255.53,333.09Zm4.92-31.72a84.52,84.52,0,0,0-4.92-26.71,63.09,63.09,0,0,0,9.5-4.5,52.61,52.61,0,0,1,12.14,31.21ZM253.64,270a51.22,51.22,0,0,0-10.44-15.49,53,53,0,0,1,18.35,11.84A58.67,58.67,0,0,1,253.64,270Zm-58.38,0a58.67,58.67,0,0,1-7.91-3.65,53,53,0,0,1,18.35-11.84A51.41,51.41,0,0,0,195.26,270Zm-1.89,4.63a84.52,84.52,0,0,0-4.92,26.71H171.73a52.56,52.56,0,0,1,12.15-31.21A63,63,0,0,0,193.37,274.66Zm-4.92,31.71a84.59,84.59,0,0,0,4.92,26.72,63,63,0,0,0-9.49,4.49,52.53,52.53,0,0,1-12.15-31.21Z"/><path class="cls-1" d="M399.18,192.19V309.91a9.91,9.91,0,0,1-9.9,9.9v5a14.92,14.92,0,0,0,14.9-14.9V151.32a14.91,14.91,0,0,0-14.9-14.89H185.81a14.91,14.91,0,0,0-14.89,14.89V162H154.3a14.92,14.92,0,0,0-14.9,14.89v10.31H122.72a14.92,14.92,0,0,0-14.9,14.9V360.68a14.91,14.91,0,0,0,14.9,14.89h25.21v-5H122.72a9.91,9.91,0,0,1-9.9-9.89V239.6H290.06v-5H112.82V202.09a9.91,9.91,0,0,1,9.9-9.9H326.19a9.91,9.91,0,0,1,9.89,9.9V234.6H308.31v5h27.77V360.68a9.91,9.91,0,0,1-9.89,9.89H181.44v5H326.19a14.91,14.91,0,0,0,14.89-14.89V211.48h26.59v124a9.91,9.91,0,0,1-9.9,9.9v5a14.92,14.92,0,0,0,14.9-14.9V192.19ZM175.92,151.32a9.91,9.91,0,0,1,9.89-9.89H389.28a9.91,9.91,0,0,1,9.9,9.89v35.87H372.67V176.88A14.92,14.92,0,0,0,357.77,162H175.92Zm165.16,55.16v-4.39a14.92,14.92,0,0,0-14.89-14.9H144.4V176.88a9.91,9.91,0,0,1,9.9-9.89H357.77a9.91,9.91,0,0,1,9.9,9.89v29.6Z"/><polygon class="cls-1" points="407.75 385.82 407.75 380.6 393.39 380.6 393.39 366.24 388.17 366.24 388.17 380.6 373.81 380.6 373.81 385.82 388.17 385.82 388.17 400.18 393.39 400.18 393.39 385.82 407.75 385.82"/><polygon class="cls-1" points="130.57 128.79 135.8 128.79 135.8 114.43 150.16 114.43 150.16 109.21 135.8 109.21 135.8 94.85 130.57 94.85 130.57 109.21 116.21 109.21 116.21 114.43 130.57 114.43 130.57 128.79"/><polygon class="cls-1" points="114.24 382.24 109.02 382.24 109.02 392.01 99.24 392.01 99.24 397.24 109.02 397.24 109.02 407.02 114.24 407.02 114.24 397.24 124.02 397.24 124.02 392.01 114.24 392.01 114.24 382.24"/><polygon class="cls-1" points="424.72 338.25 424.72 333.03 418.85 333.03 418.85 327.16 413.62 327.16 413.62 333.03 407.75 333.03 407.75 338.25 413.62 338.25 413.62 344.13 418.85 344.13 418.85 338.25 424.72 338.25"/><polygon class="cls-1" points="395.99 131.03 401.21 131.03 401.21 125.16 407.08 125.16 407.08 119.94 401.21 119.94 401.21 114.06 395.99 114.06 395.99 119.94 390.11 119.94 390.11 125.16 395.99 125.16 395.99 131.03"/><polygon class="cls-1" points="109.02 160.15 114.24 160.15 114.24 154.28 120.12 154.28 120.12 149.05 114.24 149.05 114.24 143.18 109.02 143.18 109.02 149.05 103.14 149.05 103.14 154.28 109.02 154.28 109.02 160.15"/></svg>