<svg width="260" height="260" viewBox="0 0 260 260" fill="none" xmlns="http://www.w3.org/2000/svg">
<path d="M87.3742 188.18H82.4383V190.719H87.3742V188.18Z" fill="#15D47E"/>
<path d="M163.069 107.077H156.564V109.616H163.069V107.077Z" fill="#15D47E"/>
<path d="M150.546 107.077H144.041V109.616H150.546V107.077Z" fill="#15D47E"/>
<path d="M138.029 107.077H131.523V109.616H138.029V107.077Z" fill="#15D47E"/>
<path d="M113.979 183.65C119.782 183.65 125.455 181.93 130.28 178.705C135.105 175.481 138.866 170.899 141.086 165.537C143.307 160.176 143.888 154.276 142.756 148.585C141.624 142.893 138.83 137.665 134.726 133.561C130.623 129.458 125.394 126.663 119.703 125.531C114.011 124.399 108.111 124.98 102.75 127.201C97.3886 129.422 92.8061 133.183 89.582 138.008C86.358 142.833 84.6371 148.506 84.6371 154.309C84.6465 162.088 87.7409 169.546 93.2414 175.046C98.7419 180.547 106.2 183.641 113.979 183.65ZM115.248 168.975C119.031 169.062 122.787 169.643 126.42 170.701C123.779 176.495 119.778 180.4 115.248 181.02V168.975ZM115.248 166.436V155.578H129.721C129.631 159.93 128.848 164.24 127.4 168.345C123.461 167.17 119.383 166.528 115.273 166.436H115.248ZM115.248 153.039V142.187C119.366 142.093 123.453 141.449 127.4 140.273C128.847 144.378 129.631 148.688 129.721 153.039H115.248ZM115.273 139.648V127.603C119.844 128.223 123.82 132.128 126.445 137.917C122.812 138.977 119.057 139.559 115.273 139.648ZM112.734 139.648C108.951 139.559 105.195 138.977 101.563 137.917C104.203 132.128 108.205 128.223 112.734 127.603V139.648ZM112.734 142.187V153.039H98.2617C98.3402 148.69 99.1116 144.38 100.547 140.273C104.506 141.452 108.605 142.096 112.734 142.187ZM112.734 155.578V166.436C108.605 166.523 104.505 167.165 100.547 168.345C99.0991 164.24 98.3156 159.93 98.2262 155.578H112.734ZM112.734 168.975V181.02C108.189 180.4 104.188 176.495 101.563 170.701C105.196 169.643 108.951 169.062 112.734 168.975ZM104.457 179.359C100.968 178.025 97.7942 175.979 95.1387 173.352C96.4287 172.632 97.7714 172.01 99.1555 171.493C100.427 174.417 102.224 177.083 104.457 179.359ZM128.802 171.493C130.186 172.01 131.528 172.632 132.818 173.352C130.163 175.979 126.989 178.025 123.5 179.359C125.734 177.084 127.531 174.418 128.802 171.493ZM129.761 169.147C131.32 164.788 132.164 160.206 132.26 155.578H140.75C140.473 161.394 138.303 166.959 134.57 171.427C133.033 170.535 131.425 169.773 129.761 169.147ZM132.26 153.039C132.164 148.413 131.32 143.833 129.761 139.476C131.43 138.85 133.044 138.085 134.586 137.191C138.312 141.661 140.477 147.226 140.75 153.039H132.26ZM128.802 137.109C127.531 134.185 125.734 131.518 123.5 129.243C126.99 130.579 130.163 132.627 132.818 135.256C131.527 135.972 130.185 136.592 128.802 137.109ZM99.1555 137.109C97.7725 136.592 96.4298 135.972 95.1387 135.256C97.7937 132.627 100.967 130.579 104.457 129.243C102.224 131.52 100.427 134.186 99.1555 137.109ZM98.1957 139.461C96.6372 143.817 95.7935 148.398 95.6973 153.024H87.2066C87.4801 147.21 89.6468 141.644 93.3766 137.175C94.916 138.075 96.528 138.845 98.1957 139.476V139.461ZM95.6973 155.563C95.7935 160.191 96.6372 164.773 98.1957 169.132C96.5287 169.757 94.9167 170.519 93.3766 171.412C89.6458 166.944 87.479 161.378 87.2066 155.563H95.6973Z" fill="#15D47E"/>
<path d="M202.709 97.5964V157.376C202.707 158.709 202.177 159.987 201.235 160.929C200.292 161.872 199.014 162.402 197.681 162.403V164.942C199.687 164.94 201.61 164.142 203.029 162.723C204.447 161.305 205.245 159.382 205.248 157.376V76.8421C205.245 74.8367 204.447 72.9142 203.028 71.4966C201.61 70.079 199.687 69.2821 197.681 69.2808H94.3566C92.3521 69.2834 90.4304 70.081 89.0129 71.4984C87.5955 72.9158 86.798 74.8375 86.7953 76.8421V82.2655H78.3555C76.3504 82.2682 74.4282 83.0656 73.01 84.4828C71.5917 85.9001 70.7931 87.8218 70.7891 89.8269V95.0624H62.3188C60.3128 95.0651 58.3899 95.8631 56.9715 97.2815C55.5531 98.6999 54.755 100.623 54.7523 102.629V183.158C54.755 185.163 55.5532 187.086 56.9718 188.503C58.3903 189.921 60.3133 190.718 62.3188 190.719H75.1207V188.18H62.3188C60.9867 188.179 59.7095 187.649 58.7672 186.708C57.8248 185.766 57.2941 184.49 57.2914 183.158V121.672H147.296V119.133H57.2914V102.624C57.2928 101.291 57.8229 100.013 58.7654 99.0703C59.7079 98.1278 60.9858 97.5977 62.3188 97.5964H165.643C166.975 97.5991 168.252 98.1298 169.193 99.0721C170.135 100.015 170.664 101.292 170.666 102.624V119.133H156.564V121.672H170.666V183.158C170.663 184.489 170.133 185.765 169.192 186.706C168.25 187.647 166.975 188.177 165.643 188.18H92.1375V190.719H165.643C167.648 190.716 169.57 189.919 170.987 188.501C172.405 187.084 173.202 185.162 173.205 183.158V107.392H186.707V170.361C186.706 171.694 186.176 172.972 185.233 173.914C184.291 174.857 183.013 175.387 181.68 175.388V177.927C183.686 177.925 185.609 177.127 187.027 175.708C188.446 174.29 189.244 172.367 189.246 170.361V97.5964H202.709ZM89.3344 76.8421C89.3371 75.5109 89.8671 74.2351 90.8083 73.2938C91.7496 72.3525 93.0255 71.8225 94.3566 71.8198H197.681C199.013 71.8212 200.29 72.3506 201.233 73.292C202.175 74.2334 202.706 75.5101 202.709 76.8421V95.0573H189.246V89.8218C189.241 87.8176 188.442 85.8973 187.024 84.4811C185.606 83.0648 183.684 82.2682 181.68 82.2655H89.3344V76.8421ZM173.205 104.853V102.624C173.202 100.619 172.405 98.6965 170.987 97.2782C169.57 95.86 167.648 95.0614 165.643 95.0573H73.3281V89.8218C73.3308 88.4897 73.8615 87.2131 74.8039 86.2717C75.7463 85.3303 77.0234 84.8009 78.3555 84.7995H181.68C183.012 84.8009 184.289 85.3303 185.232 86.2717C186.174 87.2131 186.705 88.4897 186.707 89.8218V104.853H173.205Z" fill="#15D47E"/>
<path d="M207.061 195.924V193.273H199.768V185.981H197.118V193.273H189.825V195.924H197.118V203.216H199.768V195.924H207.061Z" fill="#15D47E"/>
<path d="M66.3051 65.4012H68.9609V58.109H76.2531V55.4582H68.9609V48.166H66.3051V55.4582H59.0129V58.109H66.3051V65.4012Z" fill="#15D47E"/>
<path d="M58.0125 194.106H55.3617V199.068H50.3953V201.723H55.3617V206.69H58.0125V201.723H62.9789V199.068H58.0125V194.106Z" fill="#15D47E"/>
<path d="M215.678 171.768V169.117H212.697V166.136H210.041V169.117H207.061V171.768H210.041V174.754H212.697V171.768H215.678Z" fill="#15D47E"/>
<path d="M201.089 66.5387H203.739V63.5579H206.72V60.9071H203.739V57.9211H201.089V60.9071H198.103V63.5579H201.089V66.5387Z" fill="#15D47E"/>
<path d="M55.3617 81.3261H58.0125V78.3452H60.9984V75.6894H58.0125V72.7085H55.3617V75.6894H52.3758V78.3452H55.3617V81.3261Z" fill="#15D47E"/>
</svg>
