<svg width="198" height="121" viewBox="0 0 198 121" fill="none" xmlns="http://www.w3.org/2000/svg">
<g clip-path="url(#clip0_7_286)">
<path d="M193.109 54.5031L113.264 3.12305C112.178 2.43054 110.926 2.0437 109.639 2.00328C108.351 1.96287 107.077 2.27037 105.95 2.8934C104.823 3.51642 103.885 4.43191 103.234 5.5434C102.584 6.6549 102.245 7.92125 102.254 9.20905V111.791C102.245 113.079 102.584 114.345 103.235 115.456C103.722 116.287 104.371 117.011 105.145 117.585C105.918 118.16 106.799 118.572 107.735 118.798C108.671 119.024 109.643 119.059 110.593 118.901C111.543 118.743 112.452 118.395 113.264 117.878L193.109 66.4981C194.127 65.8633 194.968 64.9796 195.55 63.9303C196.132 62.881 196.438 61.7007 196.438 60.5006C196.438 59.3004 196.132 58.1201 195.55 57.0708C194.968 56.0215 194.127 55.1378 193.109 54.5031ZM92.855 54.5031L13.01 3.12305C11.9242 2.43054 10.6717 2.0437 9.38453 2.00328C8.09734 1.96287 6.82306 2.27037 5.69597 2.8934C4.56887 3.51642 3.63067 4.43191 2.98021 5.5434C2.32976 6.6549 1.99113 7.92125 1.99999 9.20905V111.791C1.99095 113.079 2.32945 114.345 2.97983 115.457C3.63021 116.569 4.56839 117.484 5.69552 118.107C6.82265 118.731 8.097 119.038 9.38428 118.998C10.6716 118.957 11.9241 118.571 13.01 117.878L92.855 66.4981C93.8728 65.8627 94.7122 64.9789 95.2941 63.9296C95.876 62.8804 96.1813 61.7004 96.1813 60.5006C96.1813 59.3008 95.876 58.1207 95.2941 57.0715C94.7122 56.0222 93.8728 55.1384 92.855 54.5031Z" stroke="#15D47E" stroke-width="2.25" stroke-linecap="round" stroke-linejoin="round"/>
</g>
<defs>
<clipPath id="clip0_7_286">
<rect width="198" height="121" fill="white"/>
</clipPath>
</defs>
</svg>
