<svg id="Layer_3" data-name="Layer 3" xmlns="http://www.w3.org/2000/svg" viewBox="0 0 512 512"><defs><style>.cls-1{fill:#fff;}</style></defs><path class="cls-1" d="M388.77,364.34V217.73h-5.23v144H128.46V150.28H275.7v-5.23H125.84a2.61,2.61,0,0,0-2.61,2.61V364.34a2.61,2.61,0,0,0,2.61,2.61H386.16A2.61,2.61,0,0,0,388.77,364.34Z"/><path class="cls-1" d="M361,168.75,188.88,308.92l-21.79-21.79a2.61,2.61,0,0,0-4.46,1.84v42.57a2.61,2.61,0,0,0,2.61,2.61h42.57a2.61,2.61,0,0,0,1.85-4.46L192.6,312.63,364.69,172.46l19.62,19.62a2.62,2.62,0,0,0,1.85.77,2.74,2.74,0,0,0,1-.2,2.63,2.63,0,0,0,1.61-2.42V147.66a2.61,2.61,0,0,0-2.61-2.61H343.59a2.61,2.61,0,0,0-1.85,4.46ZM167.86,328.93V295.28l33.64,33.65ZM383.54,150.28v33.65l-33.65-33.65Z"/><rect class="cls-1" x="298.18" y="145.05" width="18.34" height="5.22"/><polygon class="cls-1" points="388.77 382.24 383.54 382.24 383.54 390.52 375.26 390.52 375.26 395.74 383.54 395.74 383.54 404.02 388.77 404.02 388.77 395.74 397.05 395.74 397.05 390.52 388.77 390.52 388.77 382.24"/><polygon class="cls-1" points="101.85 285.3 101.85 277.02 110.14 277.02 110.14 271.79 101.85 271.79 101.85 263.51 96.63 263.51 96.63 271.79 88.35 271.79 88.35 277.02 96.63 277.02 96.63 285.3 101.85 285.3"/><polygon class="cls-1" points="113.6 122.55 118.83 122.55 118.83 111.2 130.17 111.2 130.17 105.98 118.83 105.98 118.83 94.63 113.6 94.63 113.6 105.98 102.25 105.98 102.25 111.2 113.6 111.2 113.6 122.55"/><polygon class="cls-1" points="114.24 382.24 109.02 382.24 109.02 392.01 99.24 392.01 99.24 397.24 109.02 397.24 109.02 407.02 114.24 407.02 114.24 397.24 124.02 397.24 124.02 392.01 114.24 392.01 114.24 382.24"/><polygon class="cls-1" points="424.72 333.03 418.85 333.03 418.85 327.16 413.62 327.16 413.62 333.03 407.75 333.03 407.75 338.25 413.62 338.25 413.62 344.13 418.85 344.13 418.85 338.25 424.72 338.25 424.72 333.03"/><polygon class="cls-1" points="401.21 114.06 395.99 114.06 395.99 119.94 390.11 119.94 390.11 125.16 395.99 125.16 395.99 131.03 401.21 131.03 401.21 125.16 407.08 125.16 407.08 119.94 401.21 119.94 401.21 114.06"/></svg>