<svg width="260" height="260" viewBox="0 0 260 260" fill="none" xmlns="http://www.w3.org/2000/svg">
<path d="M197.422 185.016V110.566H194.766V183.691H65.2336V76.3141H140.004V73.6582H63.9031C63.7291 73.6582 63.5567 73.6925 63.3959 73.7591C63.2351 73.8257 63.089 73.9233 62.966 74.0464C62.8429 74.1695 62.7453 74.3156 62.6786 74.4764C62.612 74.6372 62.5778 74.8095 62.5778 74.9836V185.016C62.5778 185.368 62.7174 185.705 62.966 185.954C63.2145 186.202 63.5516 186.342 63.9031 186.342H196.097C196.448 186.342 196.786 186.202 197.034 185.954C197.283 185.705 197.422 185.368 197.422 185.016Z" fill="#15D47E"/>
<path d="M183.32 85.6934L95.9156 156.873L84.8504 145.808C84.6653 145.622 84.4292 145.495 84.172 145.444C83.9148 145.392 83.648 145.418 83.4055 145.518C83.163 145.618 82.9556 145.788 82.8096 146.006C82.6637 146.224 82.5857 146.48 82.5856 146.743V168.36C82.5856 168.534 82.6199 168.707 82.6865 168.867C82.7531 169.028 82.8507 169.174 82.9738 169.297C83.0968 169.42 83.243 169.518 83.4038 169.585C83.5646 169.651 83.7369 169.686 83.911 169.686H105.529C105.791 169.686 106.048 169.609 106.267 169.464C106.486 169.318 106.657 169.111 106.757 168.868C106.858 168.625 106.884 168.358 106.833 168.1C106.781 167.843 106.654 167.606 106.468 167.421L97.8047 158.757L185.194 87.5774L195.157 97.5406C195.406 97.7903 195.744 97.9309 196.097 97.9317C196.271 97.9299 196.443 97.8954 196.605 97.8301C196.847 97.7283 197.053 97.5574 197.199 97.3388C197.344 97.1203 197.422 96.8637 197.422 96.6012V74.9836C197.422 74.8095 197.388 74.6372 197.321 74.4764C197.255 74.3156 197.157 74.1695 197.034 74.0464C196.911 73.9233 196.765 73.8257 196.604 73.7591C196.443 73.6925 196.271 73.6582 196.097 73.6582H174.479C174.217 73.6573 173.959 73.7346 173.741 73.8801C173.522 74.0257 173.351 74.233 173.251 74.4758C173.15 74.7185 173.124 74.9857 173.175 75.2434C173.227 75.5011 173.354 75.7377 173.54 75.9231L183.32 85.6934ZM85.2414 167.035V149.947L102.324 167.035H85.2414ZM194.766 76.3141V93.402L177.679 76.3141H194.766Z" fill="#15D47E"/>
<path d="M160.733 73.6582H151.42V76.309H160.733V73.6582Z" fill="#15D47E"/>
<path d="M197.422 194.106H194.766V198.311H190.562V200.962H194.766V205.166H197.422V200.962H201.627V198.311H197.422V194.106Z" fill="#15D47E"/>
<path d="M51.7207 144.879V140.674H55.9305V138.018H51.7207V133.814H49.0699V138.018H44.8652V140.674H49.0699V144.879H51.7207Z" fill="#15D47E"/>
<path d="M57.6875 62.2323H60.3434V56.4687H66.102V53.8179H60.3434V48.0542H57.6875V53.8179H51.9238V56.4687H57.6875V62.2323Z" fill="#15D47E"/>
<path d="M58.0125 194.106H55.3617V199.068H50.3953V201.723H55.3617V206.69H58.0125V201.723H62.9789V199.068H58.0125V194.106Z" fill="#15D47E"/>
<path d="M215.678 169.117H212.697V166.136H210.041V169.117H207.061V171.768H210.041V174.754H212.697V171.768H215.678V169.117Z" fill="#15D47E"/>
<path d="M203.74 57.9211H201.089V60.9071H198.103V63.5579H201.089V66.5387H203.74V63.5579H206.72V60.9071H203.74V57.9211Z" fill="#15D47E"/>
</svg>
