<svg id="Layer_3" data-name="Layer 3" xmlns="http://www.w3.org/2000/svg" viewBox="0 0 512 512"><defs><style>.cls-1{fill:#fff;}</style></defs><rect class="cls-1" x="212.53" y="379.82" width="20.85" height="5.65"/><path class="cls-1" d="M334.72,127.36a2.83,2.83,0,0,0-2-.83H106.45a2.82,2.82,0,0,0-2.82,2.82v253.3a2.82,2.82,0,0,0,2.82,2.82H182.9v-5.65H109.28V132.18H329.43v15.21h-204a2.83,2.83,0,0,0-2.82,2.83V361.78a2.83,2.83,0,0,0,2.82,2.83H386.62a2.83,2.83,0,0,0,2.82-2.83V225h-5.65V289.7l-64-61.68A2.82,2.82,0,0,0,316,228l-51.31,47L200,202.59a2.84,2.84,0,0,0-2.06-1,2.92,2.92,0,0,0-2.08.87l-67.63,70.36V153H329.43v51.43a2.83,2.83,0,0,0,2.83,2.82h70.46V379.82H248.29v5.65H405.55a2.82,2.82,0,0,0,2.82-2.82V202.18a2.82,2.82,0,0,0-.82-2Zm49.07,182.27H323.88l2.82-5.41a2.62,2.62,0,0,0,.08-2.24L316,277l3.91-41,63.87,61.58ZM264.3,281.83a2.77,2.77,0,0,0,2.05-.74l48.24-44.2-3.84,40.28a2.44,2.44,0,0,0,.2,1.28l10.54,24.46-3.5,6.72H202.46l12.26-18.91a2.62,2.62,0,0,0-.29-3.22L184,255.33l14.9-45.51,63.46,71.07A2.84,2.84,0,0,0,264.3,281.83ZM191.68,215l-13.16,40.2a2.61,2.61,0,0,0,.58,2.61l30.12,31.8-13,20h-67.9v5.23h70.36l.27.17.11-.17H383.79v11.53H352.56v5.22h31.23V359H128.21V340.1h45.08v-5.23H128.21V281Zm143.4-79.28L401,201.64H335.08Z"/><path class="cls-1" d="M245.47,196.06a23.92,23.92,0,1,0,23.92-23.92A23.95,23.95,0,0,0,245.47,196.06Zm42.19,0a18.27,18.27,0,1,1-18.27-18.27A18.3,18.3,0,0,1,287.66,196.06Z"/><polygon class="cls-1" points="387.28 389.45 382.06 389.45 382.06 396.75 374.76 396.75 374.76 401.98 382.06 401.98 382.06 409.27 387.28 409.27 387.28 401.98 394.58 401.98 394.58 396.75 387.28 396.75 387.28 389.45"/><polygon class="cls-1" points="113.6 114.06 118.83 114.06 118.83 104.91 127.97 104.91 127.97 99.69 118.83 99.69 118.83 90.54 113.6 90.54 113.6 99.69 104.45 99.69 104.45 104.91 113.6 104.91 113.6 114.06"/><polygon class="cls-1" points="107.06 394.63 101.84 394.63 101.84 404.4 92.06 404.4 92.06 409.63 101.84 409.63 101.84 419.41 107.06 419.41 107.06 409.63 116.84 409.63 116.84 404.4 107.06 404.4 107.06 394.63"/><polygon class="cls-1" points="427.33 329 422.11 329 422.11 334.87 416.24 334.87 416.24 340.1 422.11 340.1 422.11 345.97 427.33 345.97 427.33 340.1 433.21 340.1 433.21 334.87 427.33 334.87 427.33 329"/><polygon class="cls-1" points="395.69 114.06 390.46 114.06 390.46 129.77 374.76 129.77 374.76 134.99 390.46 134.99 390.46 150.69 395.69 150.69 395.69 134.99 411.39 134.99 411.39 129.77 395.69 129.77 395.69 114.06"/><rect class="cls-1" x="191.04" y="334.87" width="10.44" height="5.22"/><rect class="cls-1" x="261" y="343.36" width="33.06" height="5.22"/><rect class="cls-1" x="312.16" y="343.36" width="9.05" height="5.22"/><polygon class="cls-1" points="74.31 272.24 69.08 272.24 69.08 278.12 63.21 278.12 63.21 283.34 69.08 283.34 69.08 289.21 74.31 289.21 74.31 283.34 80.18 283.34 80.18 278.12 74.31 278.12 74.31 272.24"/></svg>