<svg width="260" height="260" viewBox="0 0 260 260" fill="none" xmlns="http://www.w3.org/2000/svg">
<path d="M118.513 192.877H107.925V195.747H118.513V192.877Z" fill="#15D47E"/>
<path d="M169.975 64.6749C169.706 64.4053 169.34 64.2537 168.959 64.2534H54.0566C53.6768 64.2534 53.3126 64.4043 53.044 64.6728C52.7755 64.9414 52.6246 65.3057 52.6246 65.6855V194.314C52.6246 194.694 52.7755 195.058 53.044 195.327C53.3126 195.596 53.6768 195.746 54.0566 195.746H92.8789V192.877H55.4937V67.1226H167.289V74.8464H63.6949C63.3147 74.8477 62.9504 74.9997 62.682 75.2691C62.4136 75.5385 62.2629 75.9032 62.2629 76.2835V183.716C62.2629 184.097 62.4136 184.461 62.682 184.731C62.9504 185 63.3147 185.152 63.6949 185.153H196.33C196.711 185.152 197.075 185 197.343 184.731C197.612 184.461 197.762 184.097 197.762 183.716V114.258H194.893V147.113L162.393 115.791C162.131 115.551 161.789 115.417 161.433 115.415C161.077 115.413 160.733 115.543 160.469 115.781L134.413 139.648L101.562 102.878C101.433 102.725 101.273 102.601 101.093 102.514C100.913 102.426 100.716 102.377 100.516 102.37C100.32 102.37 100.125 102.409 99.9439 102.485C99.7626 102.561 99.5981 102.672 99.4602 102.812L65.1168 138.541V77.6952H167.289V103.812C167.29 104.192 167.442 104.557 167.711 104.825C167.981 105.093 168.346 105.244 168.726 105.244H204.506V192.877H126.085V195.746H205.943C206.323 195.746 206.687 195.596 206.956 195.327C207.225 195.058 207.375 194.694 207.375 194.314V102.669C207.376 102.481 207.34 102.294 207.268 102.12C207.197 101.946 207.092 101.787 206.959 101.654L169.975 64.6749ZM194.893 157.234H164.47L165.902 154.487C165.993 154.312 166.043 154.119 166.05 153.922C166.057 153.726 166.021 153.53 165.943 153.349L160.469 140.664L162.454 119.844L194.888 151.115L194.893 157.234ZM134.215 143.117C134.405 143.128 134.595 143.1 134.774 143.035C134.953 142.971 135.117 142.871 135.256 142.741L159.753 120.296L157.803 140.75C157.777 140.972 157.812 141.197 157.904 141.4L163.257 153.821L161.479 157.234H102.812L109.037 147.631C109.199 147.381 109.273 147.085 109.246 146.788C109.219 146.492 109.094 146.213 108.89 145.996L93.4375 129.66L101.004 106.549L133.23 142.639C133.483 142.922 133.836 143.093 134.215 143.117ZM97.3375 109.18L90.6547 129.594C90.5797 129.821 90.5675 130.064 90.6194 130.297C90.6712 130.53 90.7852 130.745 90.9492 130.919L106.245 147.067L99.643 157.224H65.1625V159.88H100.892L101.029 159.966L101.085 159.88H194.893V165.735H179.034V168.385H194.893V182.305H65.1066V172.707H87.9988V170.051H65.1066V142.695L97.3375 109.18ZM170.158 68.9202L203.633 102.395H170.158V68.9202Z" fill="#15D47E"/>
<path d="M124.653 99.5617C124.653 101.964 125.365 104.313 126.7 106.31C128.035 108.308 129.932 109.865 132.151 110.784C134.371 111.703 136.813 111.944 139.169 111.475C141.526 111.006 143.69 109.85 145.389 108.151C147.088 106.452 148.244 104.288 148.713 101.931C149.182 99.5751 148.941 97.1328 148.022 94.9133C147.102 92.6937 145.546 90.7966 143.548 89.4619C141.551 88.1272 139.202 87.4148 136.8 87.4148C133.579 87.4188 130.492 88.6999 128.215 90.977C125.938 93.2541 124.657 96.3414 124.653 99.5617ZM146.077 99.5617C146.077 101.397 145.533 103.19 144.514 104.716C143.494 106.242 142.045 107.431 140.35 108.133C138.655 108.835 136.789 109.019 134.99 108.661C133.19 108.303 131.537 107.42 130.239 106.122C128.942 104.825 128.058 103.171 127.7 101.372C127.342 99.572 127.526 97.7065 128.228 96.0112C128.93 94.316 130.119 92.867 131.645 91.8475C133.171 90.8281 134.965 90.2839 136.8 90.2839C139.259 90.288 141.616 91.2667 143.356 93.0058C145.095 94.7448 146.073 97.1023 146.077 99.5617Z" fill="#15D47E"/>
<path d="M196.666 197.768H194.015V201.475H190.308V204.13H194.015V207.832H196.666V204.13H200.373V201.475H196.666V197.768Z" fill="#15D47E"/>
<path d="M57.6875 57.921H60.3434V53.2746H64.9848V50.6238H60.3434V45.9773H57.6875V50.6238H53.041V53.2746H57.6875V57.921Z" fill="#15D47E"/>
<path d="M54.3664 200.398H51.7156V205.359H46.7492V208.015H51.7156V212.982H54.3664V208.015H59.3328V205.359H54.3664V200.398Z" fill="#15D47E"/>
<path d="M217.004 167.07H214.353V170.051H211.372V172.707H214.353V175.688H217.004V172.707H219.989V170.051H217.004V167.07Z" fill="#15D47E"/>
<path d="M200.936 57.9211H198.28V65.8989H190.308V68.5497H198.28V76.5223H200.936V68.5497H208.909V65.8989H200.936V57.9211Z" fill="#15D47E"/>
<path d="M102.314 170.051H97.0125V172.702H102.314V170.051Z" fill="#15D47E"/>
<path d="M149.327 174.363H132.539V177.013H149.327V174.363Z" fill="#15D47E"/>
<path d="M163.114 174.363H158.519V177.013H163.114V174.363Z" fill="#15D47E"/>
<path d="M37.7355 138.247H35.0797V141.233H32.0988V143.884H35.0797V146.864H37.7355V143.884H40.7164V141.233H37.7355V138.247Z" fill="#15D47E"/>
</svg>
