<svg width="260" height="260" viewBox="0 0 260 260" fill="none" xmlns="http://www.w3.org/2000/svg">
<path d="M190.521 194.797H136.287L204.841 126.806C204.975 126.673 205.082 126.515 205.154 126.34C205.227 126.166 205.264 125.979 205.264 125.79C205.264 125.601 205.227 125.415 205.154 125.24C205.082 125.066 204.975 124.908 204.841 124.775L190.77 110.51C190.638 110.375 190.48 110.268 190.305 110.195C190.131 110.121 189.943 110.084 189.754 110.084C189.374 110.084 189.009 110.233 188.739 110.5L153.969 144.965L117.142 63.182C117.03 62.9299 116.846 62.7157 116.615 62.5652C116.383 62.4148 116.113 62.3345 115.837 62.334C115.652 62.3348 115.469 62.3728 115.299 62.4457H91.9141V65.0965H113.664L55.2195 194.797H47.3484V197.666H67.661V194.797H58.368L79.3 148.347H141.502V145.478H80.5899L115.837 67.275L151.836 147.129L117.726 180.944C117.589 181.081 117.481 181.244 117.409 181.424C117.336 181.603 117.301 181.796 117.305 181.99L117.548 195.838C117.556 196.207 117.705 196.559 117.965 196.82C118.225 197.082 118.576 197.234 118.945 197.245L132.768 197.666H190.521V194.797ZM127.821 189.14L181.868 136.094L186.601 140.898L132.813 194.218L127.821 189.14ZM120.753 181.975L174.545 128.654L179.852 134.032L125.805 187.093L120.753 181.975ZM189.77 113.552L201.825 125.78L188.622 138.851L176.566 126.628L189.77 113.552ZM120.225 185.524L129.264 194.665L120.387 194.401L120.225 185.524Z" fill="#15D47E"/>
<path d="M205.75 194.797H197.179V197.666H205.75V194.797Z" fill="#15D47E"/>
<path d="M189.952 203.044H187.302V207.248H183.097V209.899H187.302V214.109H189.952V209.899H194.157V207.248H189.952V203.044Z" fill="#15D47E"/>
<path d="M54.8183 92.4828H57.4742V86.0844H63.8676V83.4336H57.4742V77.0352H54.8183V83.4336H48.425V86.0844H54.8183V92.4828Z" fill="#15D47E"/>
<path d="M68.3109 57.921H70.9668V53.2746H75.6133V50.6238H70.9668V45.9773H68.3109V50.6238H63.6644V53.2746H68.3109V57.921Z" fill="#15D47E"/>
<path d="M163.297 94.5344H165.953V91.9953H168.487V89.3445H165.953V86.8105H163.297V89.3445H160.763V91.9953H163.297V94.5344Z" fill="#15D47E"/>
<path d="M177.866 84.0022H180.522V78.3503H186.174V75.6944H180.522V70.0425H177.866V75.6944H172.214V78.3503H177.866V84.0022Z" fill="#15D47E"/>
<path d="M58.2359 210.549H55.5801V214.231H51.9035V216.882H55.5801V220.563H58.2359V216.882H61.9176V214.231H58.2359V210.549Z" fill="#15D47E"/>
</svg>
