<svg id="Layer_3" data-name="Layer 3" xmlns="http://www.w3.org/2000/svg" viewBox="0 0 512 512"><defs><style>.cls-1{fill:#fff;}</style></defs><path class="cls-1" d="M375.18,383.6H268.38l135-133.89a2.82,2.82,0,0,0,0-4l-27.71-28.09a2.8,2.8,0,0,0-2-.84,2.85,2.85,0,0,0-2,.82l-68.47,67.87L230.68,124.42a2.82,2.82,0,0,0-2.57-1.67,2.72,2.72,0,0,0-1.06.22H181v5.22h42.83L108.74,383.6H93.24v5.65h40V383.6H114.94l41.22-91.47H278.65v-5.65H158.7l69.41-154L299,289.73l-67.17,66.59a2.83,2.83,0,0,0-.83,2.06l.48,27.27a2.83,2.83,0,0,0,2.75,2.77l27.22.83H375.18ZM251.71,372.46,358.14,268l9.32,9.46-105.92,105Zm-13.92-14.11,105.93-105,10.45,10.59L247.74,368.43ZM373.7,223.61l23.74,24.08-26,25.74-23.74-24.07ZM236.75,365.34l17.8,18-17.48-.52Z"/><rect class="cls-1" x="388.29" y="383.6" width="16.88" height="5.65"/><polygon class="cls-1" points="374.06 399.84 368.84 399.84 368.84 408.12 360.56 408.12 360.56 413.34 368.84 413.34 368.84 421.63 374.06 421.63 374.06 413.34 382.34 413.34 382.34 408.12 374.06 408.12 374.06 399.84"/><polygon class="cls-1" points="107.95 182.12 113.18 182.12 113.18 169.52 125.77 169.52 125.77 164.3 113.18 164.3 113.18 151.7 107.95 151.7 107.95 164.3 95.36 164.3 95.36 169.52 107.95 169.52 107.95 182.12"/><polygon class="cls-1" points="134.52 114.06 139.75 114.06 139.75 104.91 148.9 104.91 148.9 99.69 139.75 99.69 139.75 90.54 134.52 90.54 134.52 99.69 125.37 99.69 125.37 104.91 134.52 104.91 134.52 114.06"/><polygon class="cls-1" points="321.57 186.16 326.8 186.16 326.8 181.16 331.79 181.16 331.79 175.94 326.8 175.94 326.8 170.95 321.57 170.95 321.57 175.94 316.58 175.94 316.58 181.16 321.57 181.16 321.57 186.16"/><polygon class="cls-1" points="350.26 165.42 355.49 165.42 355.49 154.29 366.62 154.29 366.62 149.06 355.49 149.06 355.49 137.93 350.26 137.93 350.26 149.06 339.13 149.06 339.13 154.29 350.26 154.29 350.26 165.42"/><polygon class="cls-1" points="114.68 414.62 109.45 414.62 109.45 421.87 102.21 421.87 102.21 427.09 109.45 427.09 109.45 434.34 114.68 434.34 114.68 427.09 121.93 427.09 121.93 421.87 114.68 421.87 114.68 414.62"/></svg>