<svg id="Layer_1" data-name="Layer 1" xmlns="http://www.w3.org/2000/svg" viewBox="0 0 360 500"><defs><style>.cls-1{fill:#15d47e;}</style></defs><rect class="cls-1" x="169.26" y="158.08" width="21.4" height="42.62"/><rect class="cls-1" x="124.96" y="183.7" width="21.4" height="42.62" transform="translate(-109.71 219.99) rotate(-60)"/><rect class="cls-1" x="114.38" y="245.48" width="42.62" height="21.4" transform="matrix(0.87, -0.5, 0.5, 0.87, -109.92, 102.17)"/><rect class="cls-1" x="169.33" y="260.43" width="21.4" height="42.62"/><rect class="cls-1" x="213.64" y="234.82" width="21.4" height="42.62" transform="translate(-109.64 322.35) rotate(-60)"/><rect class="cls-1" x="202.99" y="194.25" width="42.62" height="21.4" transform="translate(-72.43 139.62) rotate(-30)"/><path class="cls-1" d="M318.06,318.23V128.42a21.4,21.4,0,0,0-21.4-21.4H228.13l21.05-56.38L232.54,34l-27.26,73H154.72L127.46,34,110.85,50.64,131.9,107H77.84l-35.9,35.9V332.71a21.4,21.4,0,0,0,21.4,21.4H113l-9.87,26.44a43.09,43.09,0,1,0,22.12,1.95l10.6-28.39h88.3l10.59,28.39a43.05,43.05,0,1,0,22.1-1.95L247,354.11h35.16ZM132.24,422.93a21.68,21.68,0,1,1-21.68-21.68A21.7,21.7,0,0,1,132.24,422.93Zm117.2-21.68a21.68,21.68,0,1,1-21.68,21.68A21.71,21.71,0,0,1,249.44,401.25ZM63.34,332.74h0V128.41H296.66V332.74Z"/></svg>