<svg width="95" height="39" viewBox="0 0 95 39" fill="none" xmlns="http://www.w3.org/2000/svg">
<path d="M34.6949 14.223C34.6949 12.7241 35.7799 11.55 38.3247 11.55C41.0707 11.55 42.0538 13.0583 42.0538 14.609H43.9901C43.9901 12.0747 42.2667 9.82759 38.3247 9.82759C34.7088 9.82759 32.7586 11.9006 32.7586 14.369C32.7586 19.7175 42.0538 17.9762 42.0538 21.6211C42.0538 23.527 40.0805 24.0165 38.3755 24.0165C36.2935 24.0165 34.6949 22.6776 34.6949 20.934L32.7586 20.9575C32.7586 24.0777 35.2108 25.7389 38.3755 25.7389C41.1701 25.7389 43.9901 24.6378 43.9901 21.3764C43.9901 15.8632 34.6949 17.6044 34.6949 14.223Z" fill="white"/>
<path d="M64.3305 12.6355C60.721 12.6355 58.9355 14.8036 58.9355 16.8874H60.9496C60.9496 15.6709 62.0445 14.3964 64.0971 14.3964C66.0414 14.3964 67.2446 15.1192 67.2446 16.7766V18.1834H62.5691C60.1122 18.1834 58.4975 19.754 58.4975 21.8209C58.4975 23.6807 59.7464 25.6222 62.2972 25.7378C62.4199 25.7378 62.5378 25.7378 62.6749 25.7378C64.3711 25.7686 66.012 25.134 67.247 23.9697V25.4873H69.2611V17.3113C69.2587 14.3989 67.7042 12.6355 64.3305 12.6355ZM62.6749 23.7914C62.5787 23.7914 62.48 23.7914 62.3862 23.7914C60.9255 23.7263 60.4924 22.717 60.5116 21.8642C60.5333 20.9006 61.1349 19.937 62.5691 19.937H67.2277C66.8427 22.2497 65.0789 23.7914 62.6749 23.7914Z" fill="white"/>
<path d="M52.3818 12.6355C50.5197 12.6355 49.1728 13.6533 48.3079 14.9849V12.893H46.33V25.7267H48.3079V20.0688C48.3079 17.972 49.2106 14.4282 52.429 14.4282C54.0831 14.4282 55.1157 15.6128 55.1157 18.0947V25.7389H57.0936V17.7023C57.096 14.4307 55.5151 12.6355 52.3818 12.6355Z" fill="white"/>
<path d="M87.0443 9.82759H85.1724V25.7389H87.0443V9.82759Z" fill="white"/>
<path d="M92.3223 23.3008C92.2806 23.3008 92.2406 23.2849 92.2111 23.2566C92.1817 23.2283 92.1651 23.1899 92.1651 23.1499V14.9133H94.747V12.9408H92.1651V9.82759H90.1089V12.9408H88.4483V14.9133H90.1089V23.1499C90.1089 23.7124 90.3419 24.252 90.7565 24.6498C91.1711 25.0475 91.7335 25.2709 92.3199 25.2709H95V23.2984L92.3223 23.3008Z" fill="white"/>
<path d="M77.2155 12.636C75.7152 12.6162 74.2648 13.1719 73.1645 14.1878V12.8898H71.133V30.8867H73.1645V24.2835C74.2735 25.2801 75.722 25.8186 77.2155 25.7893C80.7422 25.7893 83.3005 23.0242 83.3005 19.2126C83.3005 15.3406 80.798 12.636 77.2155 12.636ZM77.2155 24.02C74.4461 24.02 73.1645 21.4604 73.1645 19.2126C73.1645 16.5539 74.8636 14.4053 77.2155 14.4053C80.1767 14.4053 81.2592 17.1316 81.2592 19.2126C81.2568 21.4604 79.9874 24.02 77.2155 24.02Z" fill="white"/>
<path d="M13.1035 11.2315H11.2315V14.9754H13.1035V11.2315Z" fill="#15D47E"/>
<path d="M7.1666 13.6318L6.19811 15.3093L9.53867 17.2379L10.5071 15.5605L7.1666 13.6318Z" fill="#15D47E"/>
<path d="M9.55392 18.2298L6.21336 20.1585L7.18185 21.8359L10.5224 19.9073L9.55392 18.2298Z" fill="#15D47E"/>
<path d="M13.5714 20.5911H11.2315V24.335H13.5714V20.5911Z" fill="#15D47E"/>
<path d="M15.1954 18.2469L14.2269 19.9243L17.5675 21.853L18.5359 20.1755L15.1954 18.2469Z" fill="#15D47E"/>
<path d="M17.5905 13.5747L14.25 15.5034L15.2185 17.1809L18.559 15.2522L17.5905 13.5747Z" fill="#15D47E"/>
<path d="M21.5782 28.7841L24.803 25.5565V8.4952C24.8033 8.24261 24.7538 7.99242 24.6575 7.75897C24.5611 7.52552 24.4197 7.31341 24.2414 7.13469C24.063 6.95597 23.8512 6.8142 23.6181 6.71746C23.385 6.62073 23.1351 6.57093 22.8827 6.57093H16.7256L18.6128 1.50174L17.1172 0.00472679L14.6732 6.56621H10.1321L7.6834 0L6.19249 1.49701L8.07973 6.56621H3.2248L5.88147e-06 9.7938V26.8551C-0.000621907 27.1092 0.0490139 27.3609 0.146093 27.5957C0.243171 27.8305 0.38576 28.0436 0.565606 28.223C0.745451 28.4023 0.95899 28.5443 1.19393 28.6406C1.42886 28.7369 1.68054 28.7857 1.93441 28.7841H6.39537L5.50836 31.1594C4.61248 31.3169 3.80064 31.7852 3.21527 32.4821C2.6299 33.1789 2.30837 34.0598 2.30713 34.9702C2.30838 35.9968 2.71639 36.9809 3.44167 37.7068C4.16694 38.4327 5.15027 38.8411 6.17596 38.8424C7.20166 38.8411 8.18498 38.4327 8.91026 37.7068C9.63553 36.9809 10.0436 35.9968 10.0448 34.9702C10.0431 34.1759 9.79757 33.4013 9.34143 32.7514C8.8853 32.1014 8.2406 31.6075 7.49466 31.3364L8.43828 28.7841H16.3694L17.313 31.334C16.5673 31.6059 15.9231 32.1005 15.4674 32.7508C15.0117 33.4011 14.7666 34.1759 14.7652 34.9702C14.7665 35.9968 15.1745 36.9809 15.8998 37.7068C16.6251 38.4327 17.6084 38.8411 18.6341 38.8424C19.6598 38.8411 20.6431 38.4327 21.3684 37.7068C22.0937 36.9809 22.5016 35.9968 22.5029 34.9702C22.5011 34.0596 22.1791 33.1786 21.5933 32.4818C21.0076 31.785 20.1954 31.3169 19.2993 31.1594L18.4123 28.7841H21.5782ZM8.11273 34.9702C8.11211 35.4868 7.90696 35.9821 7.54217 36.3477C7.17739 36.7132 6.68271 36.9192 6.16652 36.9204C5.65011 36.9192 5.15521 36.7132 4.79005 36.3478C4.4249 35.9823 4.21922 35.4871 4.21798 34.9702C4.21922 34.4533 4.4249 33.958 4.79005 33.5925C5.15521 33.227 5.65011 33.0211 6.16652 33.0199C6.68189 33.0211 7.17586 33.2265 7.5405 33.591C7.90515 33.9555 8.11086 34.4496 8.11273 34.9655V34.9702ZM20.5873 34.9702C20.5867 35.4868 20.3816 35.9821 20.0168 36.3477C19.652 36.7132 19.1573 36.9192 18.6411 36.9204C18.1247 36.9192 17.6298 36.7132 17.2647 36.3478C16.8995 35.9823 16.6938 35.4871 16.6926 34.9702C16.6938 34.4533 16.8995 33.958 17.2647 33.5925C17.6298 33.227 18.1247 33.0211 18.6411 33.0199C19.1565 33.0211 19.6505 33.2265 20.0151 33.591C20.3798 33.9555 20.5855 34.4496 20.5873 34.9655V34.9702ZM1.92496 26.8621V8.47871H22.8851V26.8456L1.92496 26.8621Z" fill="#15D47E"/>
</svg>
