<svg width="18" height="28" viewBox="0 0 18 28" fill="none" xmlns="http://www.w3.org/2000/svg">
<path d="M11.2975 7.22276L11.2975 7.22275L4.76328 0.946141L2.5073 1.04963L2.50729 1.04963C2.0401 1.07104 1.64361 1.09878 1.31742 1.14244C0.987617 1.18657 0.749844 1.24459 0.589912 1.31708C0.432907 1.38825 0.387735 1.45564 0.372459 1.50343C0.354322 1.56017 0.350904 1.6739 0.446642 1.88819C0.640818 2.32283 1.15002 2.97109 2.06237 3.93636C2.96541 4.89178 4.2336 6.12797 5.90942 7.73314C7.52134 9.27688 8.98758 10.7232 10.0517 11.8101C10.5834 12.3532 11.0166 12.8086 11.3178 13.1423C11.468 13.3086 11.5886 13.4482 11.6729 13.5551C11.7146 13.6079 11.7516 13.658 11.7797 13.7023C11.7935 13.7241 11.8089 13.7503 11.8217 13.7786C11.8308 13.7987 11.8557 13.855 11.8557 13.9266C11.8557 13.9983 11.8308 14.0546 11.8217 14.0747C11.8089 14.1029 11.7935 14.1291 11.7797 14.151C11.7516 14.1953 11.7146 14.2454 11.6729 14.2982C11.5886 14.4051 11.468 14.5447 11.3178 14.711C11.0166 15.0447 10.5834 15.5 10.0517 16.0431C8.98759 17.1301 7.52136 18.5764 5.90944 20.1201C4.23408 21.7249 2.96618 22.9609 2.06322 23.9163C1.15098 24.8815 0.641586 25.5298 0.447046 25.9647C0.351107 26.1791 0.354313 26.2931 0.372387 26.35C0.387564 26.3977 0.432457 26.465 0.588879 26.5361C0.748308 26.6086 0.985512 26.6666 1.31473 26.7108C1.64032 26.7545 2.03615 26.7822 2.5026 26.8036C2.50261 26.8036 2.50262 26.8036 2.50263 26.8036L4.75389 26.9068L11.1646 20.7128L11.1647 20.7128C12.9508 18.9873 14.5879 17.3482 15.7862 16.0981C16.3858 15.4726 16.8735 14.9466 17.2146 14.5567C17.3856 14.3613 17.5168 14.2035 17.6061 14.0861C17.6405 14.0409 17.6669 14.0041 17.6862 13.975C17.6766 13.9567 17.6639 13.9342 17.6474 13.9071C17.5816 13.7995 17.4748 13.651 17.325 13.4622C17.0267 13.0862 16.5787 12.5757 16.0041 11.9568C14.8562 10.7204 13.2176 9.06705 11.2975 7.22276ZM17.7107 14.0306C17.7108 14.0307 17.7104 14.0289 17.7091 14.0251C17.7099 14.0286 17.7105 14.0305 17.7107 14.0306Z" fill="#CACACA" stroke="white" strokeWidth="0.588235"/>
</svg>
