<svg width="14" height="15" viewBox="0 0 14 15" fill="none" xmlns="http://www.w3.org/2000/svg">
<path fill-rule="evenodd" clip-rule="evenodd" d="M3.83453 1.16379C2.62857 1.78544 1.30865 3.19242 0.705769 4.49938C0.242966 5.50238 0.160156 5.93074 0.160156 7.32612C0.160156 8.72149 0.242966 9.14986 0.705769 10.1529C1.38817 11.6322 2.70945 12.9475 4.22149 13.6529C5.20669 14.1126 5.63118 14.1946 7.02695 14.1946C8.4229 14.1946 8.84701 14.1128 9.8324 13.6527C11.0455 13.0866 12.4769 11.851 12.9401 10.9705L13.2111 10.4551L12.4891 10.6544C11.3967 10.9562 9.54625 10.7339 8.25767 10.1461C5.10434 8.70756 3.39959 4.98714 4.46102 1.86031C4.66862 1.24853 4.78684 0.751675 4.72357 0.756319C4.6603 0.761156 4.26019 0.944381 3.83453 1.16379Z" fill="#746666" fill-opacity="0.78"/>
</svg>
