<svg width="15" height="15" viewBox="0 0 15 15" fill="none" xmlns="http://www.w3.org/2000/svg">
<path fill-rule="evenodd" clipRule="evenodd" d="M6.6727 1.14346C6.62174 1.27582 6.60324 1.82996 6.63133 2.37452C6.67943 3.30504 6.70785 3.36474 7.1029 3.36474C7.5114 3.36474 7.52334 3.33111 7.52334 2.1875C7.52334 1.09402 7.49643 1.0064 7.14427 0.956448C6.92934 0.92584 6.72501 1.00707 6.6727 1.14346ZM2.15362 3.04033C1.825 3.36912 1.9851 3.70732 2.81388 4.43485C3.48138 5.02095 3.58245 5.05206 3.8739 4.76061C4.16535 4.46916 4.13424 4.36809 3.54814 3.70059C2.82061 2.87182 2.4824 2.71171 2.15362 3.04033ZM11.0485 3.30891C10.2254 4.03156 10.0305 4.43048 10.3464 4.74615C10.662 5.06199 11.0609 4.86707 11.7836 4.04401C12.6576 3.0484 12.0441 2.43489 11.0485 3.30891ZM5.67339 4.77676C2.84583 6.08585 2.91983 10.0595 5.79415 11.2601C8.64777 12.4522 11.6156 9.36749 10.3158 6.56011C9.49017 4.77676 7.4041 3.97539 5.67339 4.77676ZM0.103204 7.72961C-0.132244 8.34329 0.153489 8.5118 1.34048 8.45983C2.42842 8.41224 2.47803 8.39172 2.47803 7.98961C2.47803 7.5875 2.42842 7.56698 1.34048 7.51939C0.437708 7.47987 0.182415 7.52326 0.103204 7.72961ZM11.7074 7.72961C11.472 8.34329 11.7577 8.5118 12.9447 8.45983C14.0326 8.41224 14.0822 8.39172 14.0822 7.98961C14.0822 7.5875 14.0326 7.56698 12.9447 7.51939C12.0419 7.47987 11.7866 7.52326 11.7074 7.72961ZM2.62182 11.7537C1.88908 12.4865 1.79759 12.8992 2.32297 13.1008C2.58079 13.1997 3.64165 12.3545 3.9257 11.8239C4.04897 11.5933 4.04124 11.4302 3.89862 11.2583C3.5922 10.889 3.41949 10.9561 2.62182 11.7537ZM10.3072 11.2583C10.1646 11.4302 10.1568 11.5933 10.2801 11.8239C10.5641 12.3545 11.625 13.1997 11.8828 13.1008C12.4082 12.8992 12.3167 12.4865 11.584 11.7537C10.7863 10.9561 10.6136 10.889 10.3072 11.2583ZM6.6727 12.7477C6.62174 12.88 6.60324 13.4342 6.63133 13.9787C6.67943 14.9093 6.70785 14.969 7.1029 14.969C7.5114 14.969 7.52334 14.9353 7.52334 13.7917C7.52334 12.6982 7.49643 12.6106 7.14427 12.5607C6.92934 12.5301 6.72501 12.6113 6.6727 12.7477Z" fill="#746666" fill-opacity="0.78"/>
</svg>
